# xmcd
#
# Track frame offsets:
#	150
#	15005
#	25809
#	40524
#	55239
#	69059
#	80373
#	93751
#	104261
#	115075
#	129976
#	144647
#	154902
#	169554
#	184029
#	194887
#	207262
#	219309
#	231350
#	246929
#	257502
#	269522
#	282094
#
# Disc length: 3931 seconds
#
# Revision: 1
# Processed by: cddbd v1.5.2PL0 Copyright (c) Steve Scherf et al.
# Submitted via: audiograbber 1.83.01
#
DISCID=320f5917
DTITLE=The Great American Songbook - The Crooners Vol1
DYEAR=1900
DGENRE=American Songbook
TTITLE0=Frank Sinatra - Come Fly with me
TTITLE1=Dean Martin - Return To Me
TTITLE2=Nat King Cole - Mona Lisa
TTITLE3=Bing Crosby - San Antonio Rose
TTITLE4=Tony Bennett - Stranglers in Paradise
TTITLE5=Perry Como - Catch A Falling Star
TTITLE6=Sammy Davis Jr - Love Me Or Leave Me
TTITLE7=Paul Anka - Diana
TTITLE8=Andy Williams - Butterfly
TTITLE9=Mel Torme - Bewitched
TTITLE10=Frank Sinatra - The Lady Is A Tramp
TTITLE11=Dean Martin - Memories Are Made Of This
TTITLE12=Nat King Cole - Stardust
TTITLE13=Bing Crosby - Moonlight Becomes To You
TTITLE14=Tony Bennett - Lullaby Of Broadway
TTITLE15=Dean Martin - Streets Of Love
TTITLE16=Perry Como - Magic Moments
TTITLE17=Sammy Davis Jr - All Of You
TTITLE18=Frank Sinatra - Time After Time
TTITLE19=Dean Martin - Buona Sera
TTITLE20=Nat King Cole - Maria Elena
TTITLE21=Perry Como - Hello Young Lovers
TTITLE22=Dean Martin - The Man Who Plays The Mandolin
EXTD=
EXTT0=
EXTT1=
EXTT2=
EXTT3=
EXTT4=
EXTT5=
EXTT6=
EXTT7=
EXTT8=
EXTT9=
EXTT10=
EXTT11=
EXTT12=
EXTT13=
EXTT14=
EXTT15=
EXTT16=
EXTT17=
EXTT18=
EXTT19=
EXTT20=
EXTT21=
EXTT22=
PLAYORDER=
